<svg width="483" height="70" viewBox="0 0 483 70" fill="none" xmlns="http://www.w3.org/2000/svg">
<mask id="path-1-inside-1_138_13517" fill="white">
<path d="M475.539 4.89575C472.319 3.66575 468.769 3.82575 465.409 4.39275C463.272 3.47575 461.135 5.06575 458.999 4.39275C456.824 1.48975 454.649 3.50675 452.475 4.39275C450.3 1.56075 448.125 -0.324247 445.951 4.39275C443.827 5.26775 441.329 6.25775 439.275 4.30675C437.695 1.60875 436.904 7.25575 435.234 3.37575C433.587 3.02775 431.933 3.60575 430.285 3.38575C427.592 4.07275 424.9 3.24575 422.207 3.38575C420.833 3.12575 419.392 3.12475 418.04 3.49575C416.26 3.03375 415.455 5.62375 413.792 3.29775C412.426 3.66175 411.51 2.38175 409.829 1.82975C408.579 3.36775 407.569 3.33275 406.348 2.35275C404.405 1.98975 402.581 2.10675 400.625 3.36075C399.171 1.99475 398.468 7.02175 397.39 5.05975C397.113 4.47075 396.707 4.68175 396.172 5.93175C396.028 4.62975 395.884 4.37975 395.74 5.82275C394.829 6.10775 393.961 7.22275 393.018 7.30075C391.071 8.45175 388.903 8.65775 386.703 8.51075C384.503 8.46275 382.27 6.34175 380.191 8.43775C378.822 7.93275 375.935 9.87675 374.727 8.49375C373.99 8.17975 373.782 8.11375 372.937 9.96575C372.554 10.1038 371.385 8.53175 371.012 9.92975C368.955 8.84675 366.905 13.4628 364.927 10.2998C362.276 10.8078 359.954 15.6667 357.079 13.0107C354.711 14.2137 352.144 14.5528 349.767 12.9508C348.144 13.4198 346.521 13.4077 344.897 12.9407C343.778 10.4057 342.668 11.2567 341.567 13.0387C341.152 14.8447 341.183 15.2858 340.764 14.1058C339.732 13.8608 337.853 14.7838 336.61 13.8678C333.166 13.3618 330.058 12.4437 326.615 11.4327C324.263 11.0867 322.447 11.4088 320.172 10.7998C318.393 10.7908 316.374 10.7158 314.34 10.2258C312.305 10.8508 310.255 7.57475 308.412 10.4228C306.557 8.87475 304.919 12.8467 302.997 10.9457C301.098 11.0317 299.435 9.82575 297.608 10.4577C296.262 9.04775 294.977 7.22975 293.641 9.12675C292.148 8.16875 291.61 10.7037 290.156 9.45375C289.448 9.06975 288.624 11.4727 287.901 9.42575C286.16 10.0547 284.584 10.5557 282.863 8.89775C282.058 8.41275 281.177 8.52275 280.377 8.93375C278.666 10.0768 279.138 7.97175 278.029 8.42075C274.803 6.43175 273.246 8.45975 270.114 9.36775C267.015 9.38175 263.305 9.32675 260.153 9.42575C259.052 9.27975 257.736 8.65975 256.666 9.33975C255.987 9.30975 255.137 7.49075 254.468 8.30875C252.715 6.61175 251.6 6.87675 249.664 6.91075C248.434 7.01575 247.348 7.67175 246.217 6.61575C245.356 5.87975 244.975 4.83775 243.983 5.86575C242.422 5.16275 240.715 5.08375 239.131 5.90375C237.753 6.61875 236.215 5.84075 234.861 5.93975C233.036 7.53675 232.051 5.00175 230.075 4.38375C229.258 4.12475 228.195 3.45775 227.387 4.34175C225.878 3.39875 225.072 5.30675 223.385 5.45275C221.483 5.67875 219.907 5.21775 218.339 6.10175C217.507 6.62475 217.002 5.57875 215.868 7.99275C215.293 8.99075 214.104 7.99475 213.557 7.91875C210.569 10.5557 207.506 8.13575 204.573 8.51775C204.63 10.3168 204.59 10.7058 204.454 9.34075C202.173 9.81675 199.818 7.72675 197.521 9.43075C196.784 10.2067 195.708 10.2627 195.011 9.37675C193.968 9.52075 193.064 11.6078 192.048 10.5748C191.059 12.4888 190.631 11.0957 189.794 11.7317C186.524 12.5407 183.389 11.0058 180.251 10.3968C178.718 9.24675 177.464 12.1578 175.945 9.93475C174.828 8.35275 173.946 8.47875 172.811 8.38275C171.411 9.65375 169.893 9.10575 168.564 8.16275C166.951 8.31775 165.492 7.99275 163.816 5.41375C160.736 4.31975 156.82 3.35775 153.417 2.17975C151.181 0.843748 148.998 -0.658253 146.654 0.306747C145.514 0.592747 144.225 3.66375 143.196 1.47175C141.329 1.99175 140.5 2.69375 138.341 3.38675C137.075 3.19175 135.864 2.89375 134.595 4.35675C131.492 5.95775 128.207 4.49375 125.024 4.89775C122.565 3.45375 118.831 3.33275 116.668 5.13275C113.84 5.15475 111.687 8.35775 108.438 8.96175C106.796 8.60975 104.917 8.98575 103.313 8.90675C102.113 11.4938 101.086 10.7237 99.776 9.44075C96.839 9.09175 93.901 10.6247 90.964 9.42875C90.68 9.71175 89.155 8.60075 88.861 9.37675C88.319 11.0857 88.207 9.70375 87.663 10.3497C86.196 10.5407 83.63 10.8148 81.922 10.5498C78.32 10.6568 74.568 12.6448 71.038 13.0638C69.137 11.8598 67.963 14.4988 65.944 13.9638C63.168 13.3708 60.771 13.6727 58.068 13.0397C55.779 11.1437 53.759 11.3517 51.557 13.3447C49.717 12.9367 47.704 14.4997 45.852 13.3427C44.015 13.5177 42.061 12.4927 40.23 12.8297C39.253 13.7917 38.116 13.0497 37.107 12.3887C35.73 12.9577 35.195 12.8607 33.931 14.0097C32.829 13.3357 30.363 12.0637 29.209 13.9847C27.302 15.4277 25.613 12.5448 23.637 12.9078C21.63 11.2458 21.137 13.8038 19.714 15.0048C18.439 17.5178 16.324 17.5707 14.793 16.7687C13.446 16.1357 9.685 17.3308 8.211 16.9168C6.642 13.8408 5.782 12.9637 4.988 12.9537C4.988 13.0997 4.434 20.6277 3.695 25.3527C2.956 35.9247 2.032 41.2048 1.293 48.3798C0.554001 53.7208 0 61.3638 0 60.7788C1.475 60.6498 3.151 62.2968 5.054 62.7098C5.657 62.3558 5.695 66.8008 6.317 61.7338C6.8 62.9228 8.196 63.7907 8.758 61.7877C10.592 59.1347 12.763 60.5218 14.871 61.9018C16.979 63.6918 19.022 64.5097 20.601 60.4797C21.114 60.0357 21.012 58.8757 21.596 59.3547C22.272 60.0547 24.008 60.3457 24.861 58.9047C25.987 61.0667 26.722 55.8568 27.914 58.1858C31.107 56.7818 34.067 57.5198 37.047 55.5938C40.026 55.6808 43.025 54.5067 46.292 54.5877C48.454 53.4847 50.549 55.6897 52.764 55.7537C54.097 55.4397 55.485 55.0198 56.805 55.7078C59.002 57.1218 60.279 55.8227 62.248 57.6697C63.791 57.5077 65.486 55.6317 66.88 58.7167C68.66 60.0797 69.499 61.2157 71.304 62.3617C72.586 63.6547 73.661 61.9638 74.947 62.8558C76.898 63.2908 77.836 64.4107 79.936 65.7477C81.519 67.9417 83.361 65.0747 84.994 65.8137C85.914 65.3067 86.81 66.6617 87.72 65.8977C88.442 66.1007 89.128 65.1247 89.844 66.7327C92.008 67.3377 94.795 67.1867 97.031 66.8187C100.595 67.1827 104.206 67.2937 107.763 66.8287C109.91 66.9837 112.375 65.1098 114.262 65.0518C115.397 64.9348 115.824 62.2577 117.087 63.5427C120.344 63.8517 124.869 63.0887 128.12 63.7987C130.419 65.0847 132.405 63.9178 134.786 64.3158C136.363 64.5698 137.393 62.7537 138.661 64.7837C139.74 65.4207 140.532 68.8957 141.745 66.9797C143.981 72.2377 146.808 67.3847 149.188 66.8187C151.403 68.1237 153.619 66.3747 155.835 66.8187C157.088 69.1477 158.764 66.8457 159.89 66.6067C160.483 65.5357 160.833 67.3447 161.547 65.5227C162.326 60.7557 163.031 66.7127 163.846 65.2987C164.601 64.2937 165.33 65.2018 166.075 65.3518C169.385 66.8418 172.568 64.1058 175.913 65.8238C178.884 63.5528 181.855 65.7807 184.826 65.8117C185.652 62.8777 187.637 68.1887 188.464 65.8547C189.479 68.6807 188.991 65.5217 189.778 64.9177C190.56 63.3467 190.082 65.0757 191.478 64.2927C191.9 62.9027 192.326 61.5878 192.747 64.3388C194.587 63.8718 196.749 64.7168 198.858 63.6018C200.967 62.2748 203.022 61.9858 204.647 61.6498C205.498 61.1688 205.653 61.5778 206.654 60.3498C207.567 59.3898 209.585 61.3088 210.393 60.2658C211.98 56.6278 213.928 60.5527 215.462 60.1637C217.23 60.2607 218.413 60.4477 220.243 60.3877C222.503 61.5147 224.688 61.6918 227.145 61.1948C228.563 61.6338 229.909 60.5728 231.404 60.1518C232.942 62.0918 234.513 62.0488 236.064 59.2938C237.978 60.0688 239.959 59.1297 241.886 59.2687C243.529 58.4737 246.137 57.9847 247.662 59.3547C248.122 62.4787 248.462 59.6687 248.893 60.1917C249.517 59.5447 250.214 60.2238 250.866 60.5088C251.906 62.0638 253.119 63.0857 254.097 61.8727C254.827 61.8367 255.158 62.4148 255.827 62.9168C256.747 62.7888 257.416 63.2838 258.397 64.1598C258.859 65.5158 259.291 67.5197 259.721 65.0967C260.874 66.4227 262.341 65.0307 263.57 65.3057C265.389 65.7347 267.029 63.8048 268.826 65.7008C271.096 66.6368 273.488 66.3718 275.888 66.0248C278.288 66.2708 280.697 66.5298 283.002 65.8128C285.28 66.9548 287.559 65.2087 289.837 65.8137C292.115 67.9767 294.394 65.6508 296.672 65.8128C298.091 64.0528 299.526 66.0367 300.946 65.8397C303.044 62.3447 303.863 65.0428 305.583 64.3108C306.384 65.3378 308.062 60.8808 308.65 62.4878C309.138 61.2848 309.008 62.2027 309.526 60.4847C309.913 57.7137 310.391 59.8128 310.701 59.2828C310.95 56.1048 310.965 58.9458 311.329 57.7358C312.179 56.8828 313.347 60.3828 314.533 56.6668C316.13 58.4198 317.371 57.4767 319.115 55.7067C320.072 53.9567 321.073 54.7978 322.031 55.7658C324.12 56.1698 326.066 54.2788 328.071 53.4398C329.421 51.0718 329.216 51.9368 330.17 52.3218C330.663 51.1198 331.662 50.5407 332.226 52.0967C335.617 52.5317 338.636 50.9847 341.829 49.7037C343.002 48.4027 344.052 49.3768 345.245 49.3158C345.696 51.9138 346.923 50.6358 347.33 49.7378C348.514 49.9348 349.111 50.2718 350.26 51.8438C353.255 56.1648 356.751 53.2367 358.844 57.2927C359.859 57.9277 360.874 61.5627 362.087 60.7837C363.59 63.6997 365.746 65.3997 367.599 62.2497C369.455 65.1927 371.056 60.8928 372.899 63.7138C374.597 62.2708 376.488 65.4938 378.237 64.3278C380.439 64.9408 381.629 63.7737 383.485 65.4107C386.163 68.4427 389.065 67.8597 392.343 67.8487C395.344 69.3807 397.265 67.3157 399.81 66.0787C400.968 64.3037 401.997 64.7747 403.07 64.1787C405.583 63.2787 408.781 64.5847 411.741 62.2427C414.58 64.0197 417.156 63.7808 419.983 61.7868C422.008 60.7568 424.035 59.8918 426.058 61.7378C429.776 62.9288 432.93 63.3398 436.532 63.6858C438.002 62.8498 440.24 62.5748 441.735 63.7248C444.071 62.3558 445.175 60.8718 447.238 60.3648C450.183 57.2748 453.464 59.2537 456.786 59.0577C460.108 58.6537 463.471 59.5157 466.58 59.2707C469.882 59.2157 473.189 60.2578 476.49 59.2748C479.42 58.7518 480.837 58.9987 482.457 56.2497C482.457 55.3357 481.688 51.4107 480.664 42.9367C479.639 35.4277 478.358 24.2857 477.333 18.2127C476.308 11.8277 475.539 6.70275 475.539 4.89575Z"/>
</mask>
<path d="M475.539 4.89575C472.319 3.66575 468.769 3.82575 465.409 4.39275C463.272 3.47575 461.135 5.06575 458.999 4.39275C456.824 1.48975 454.649 3.50675 452.475 4.39275C450.3 1.56075 448.125 -0.324247 445.951 4.39275C443.827 5.26775 441.329 6.25775 439.275 4.30675C437.695 1.60875 436.904 7.25575 435.234 3.37575C433.587 3.02775 431.933 3.60575 430.285 3.38575C427.592 4.07275 424.9 3.24575 422.207 3.38575C420.833 3.12575 419.392 3.12475 418.04 3.49575C416.26 3.03375 415.455 5.62375 413.792 3.29775C412.426 3.66175 411.51 2.38175 409.829 1.82975C408.579 3.36775 407.569 3.33275 406.348 2.35275C404.405 1.98975 402.581 2.10675 400.625 3.36075C399.171 1.99475 398.468 7.02175 397.39 5.05975C397.113 4.47075 396.707 4.68175 396.172 5.93175C396.028 4.62975 395.884 4.37975 395.74 5.82275C394.829 6.10775 393.961 7.22275 393.018 7.30075C391.071 8.45175 388.903 8.65775 386.703 8.51075C384.503 8.46275 382.27 6.34175 380.191 8.43775C378.822 7.93275 375.935 9.87675 374.727 8.49375C373.99 8.17975 373.782 8.11375 372.937 9.96575C372.554 10.1038 371.385 8.53175 371.012 9.92975C368.955 8.84675 366.905 13.4628 364.927 10.2998C362.276 10.8078 359.954 15.6667 357.079 13.0107C354.711 14.2137 352.144 14.5528 349.767 12.9508C348.144 13.4198 346.521 13.4077 344.897 12.9407C343.778 10.4057 342.668 11.2567 341.567 13.0387C341.152 14.8447 341.183 15.2858 340.764 14.1058C339.732 13.8608 337.853 14.7838 336.61 13.8678C333.166 13.3618 330.058 12.4437 326.615 11.4327C324.263 11.0867 322.447 11.4088 320.172 10.7998C318.393 10.7908 316.374 10.7158 314.34 10.2258C312.305 10.8508 310.255 7.57475 308.412 10.4228C306.557 8.87475 304.919 12.8467 302.997 10.9457C301.098 11.0317 299.435 9.82575 297.608 10.4577C296.262 9.04775 294.977 7.22975 293.641 9.12675C292.148 8.16875 291.61 10.7037 290.156 9.45375C289.448 9.06975 288.624 11.4727 287.901 9.42575C286.16 10.0547 284.584 10.5557 282.863 8.89775C282.058 8.41275 281.177 8.52275 280.377 8.93375C278.666 10.0768 279.138 7.97175 278.029 8.42075C274.803 6.43175 273.246 8.45975 270.114 9.36775C267.015 9.38175 263.305 9.32675 260.153 9.42575C259.052 9.27975 257.736 8.65975 256.666 9.33975C255.987 9.30975 255.137 7.49075 254.468 8.30875C252.715 6.61175 251.6 6.87675 249.664 6.91075C248.434 7.01575 247.348 7.67175 246.217 6.61575C245.356 5.87975 244.975 4.83775 243.983 5.86575C242.422 5.16275 240.715 5.08375 239.131 5.90375C237.753 6.61875 236.215 5.84075 234.861 5.93975C233.036 7.53675 232.051 5.00175 230.075 4.38375C229.258 4.12475 228.195 3.45775 227.387 4.34175C225.878 3.39875 225.072 5.30675 223.385 5.45275C221.483 5.67875 219.907 5.21775 218.339 6.10175C217.507 6.62475 217.002 5.57875 215.868 7.99275C215.293 8.99075 214.104 7.99475 213.557 7.91875C210.569 10.5557 207.506 8.13575 204.573 8.51775C204.63 10.3168 204.59 10.7058 204.454 9.34075C202.173 9.81675 199.818 7.72675 197.521 9.43075C196.784 10.2067 195.708 10.2627 195.011 9.37675C193.968 9.52075 193.064 11.6078 192.048 10.5748C191.059 12.4888 190.631 11.0957 189.794 11.7317C186.524 12.5407 183.389 11.0058 180.251 10.3968C178.718 9.24675 177.464 12.1578 175.945 9.93475C174.828 8.35275 173.946 8.47875 172.811 8.38275C171.411 9.65375 169.893 9.10575 168.564 8.16275C166.951 8.31775 165.492 7.99275 163.816 5.41375C160.736 4.31975 156.82 3.35775 153.417 2.17975C151.181 0.843748 148.998 -0.658253 146.654 0.306747C145.514 0.592747 144.225 3.66375 143.196 1.47175C141.329 1.99175 140.5 2.69375 138.341 3.38675C137.075 3.19175 135.864 2.89375 134.595 4.35675C131.492 5.95775 128.207 4.49375 125.024 4.89775C122.565 3.45375 118.831 3.33275 116.668 5.13275C113.84 5.15475 111.687 8.35775 108.438 8.96175C106.796 8.60975 104.917 8.98575 103.313 8.90675C102.113 11.4938 101.086 10.7237 99.776 9.44075C96.839 9.09175 93.901 10.6247 90.964 9.42875C90.68 9.71175 89.155 8.60075 88.861 9.37675C88.319 11.0857 88.207 9.70375 87.663 10.3497C86.196 10.5407 83.63 10.8148 81.922 10.5498C78.32 10.6568 74.568 12.6448 71.038 13.0638C69.137 11.8598 67.963 14.4988 65.944 13.9638C63.168 13.3708 60.771 13.6727 58.068 13.0397C55.779 11.1437 53.759 11.3517 51.557 13.3447C49.717 12.9367 47.704 14.4997 45.852 13.3427C44.015 13.5177 42.061 12.4927 40.23 12.8297C39.253 13.7917 38.116 13.0497 37.107 12.3887C35.73 12.9577 35.195 12.8607 33.931 14.0097C32.829 13.3357 30.363 12.0637 29.209 13.9847C27.302 15.4277 25.613 12.5448 23.637 12.9078C21.63 11.2458 21.137 13.8038 19.714 15.0048C18.439 17.5178 16.324 17.5707 14.793 16.7687C13.446 16.1357 9.685 17.3308 8.211 16.9168C6.642 13.8408 5.782 12.9637 4.988 12.9537C4.988 13.0997 4.434 20.6277 3.695 25.3527C2.956 35.9247 2.032 41.2048 1.293 48.3798C0.554001 53.7208 0 61.3638 0 60.7788C1.475 60.6498 3.151 62.2968 5.054 62.7098C5.657 62.3558 5.695 66.8008 6.317 61.7338C6.8 62.9228 8.196 63.7907 8.758 61.7877C10.592 59.1347 12.763 60.5218 14.871 61.9018C16.979 63.6918 19.022 64.5097 20.601 60.4797C21.114 60.0357 21.012 58.8757 21.596 59.3547C22.272 60.0547 24.008 60.3457 24.861 58.9047C25.987 61.0667 26.722 55.8568 27.914 58.1858C31.107 56.7818 34.067 57.5198 37.047 55.5938C40.026 55.6808 43.025 54.5067 46.292 54.5877C48.454 53.4847 50.549 55.6897 52.764 55.7537C54.097 55.4397 55.485 55.0198 56.805 55.7078C59.002 57.1218 60.279 55.8227 62.248 57.6697C63.791 57.5077 65.486 55.6317 66.88 58.7167C68.66 60.0797 69.499 61.2157 71.304 62.3617C72.586 63.6547 73.661 61.9638 74.947 62.8558C76.898 63.2908 77.836 64.4107 79.936 65.7477C81.519 67.9417 83.361 65.0747 84.994 65.8137C85.914 65.3067 86.81 66.6617 87.72 65.8977C88.442 66.1007 89.128 65.1247 89.844 66.7327C92.008 67.3377 94.795 67.1867 97.031 66.8187C100.595 67.1827 104.206 67.2937 107.763 66.8287C109.91 66.9837 112.375 65.1098 114.262 65.0518C115.397 64.9348 115.824 62.2577 117.087 63.5427C120.344 63.8517 124.869 63.0887 128.12 63.7987C130.419 65.0847 132.405 63.9178 134.786 64.3158C136.363 64.5698 137.393 62.7537 138.661 64.7837C139.74 65.4207 140.532 68.8957 141.745 66.9797C143.981 72.2377 146.808 67.3847 149.188 66.8187C151.403 68.1237 153.619 66.3747 155.835 66.8187C157.088 69.1477 158.764 66.8457 159.89 66.6067C160.483 65.5357 160.833 67.3447 161.547 65.5227C162.326 60.7557 163.031 66.7127 163.846 65.2987C164.601 64.2937 165.33 65.2018 166.075 65.3518C169.385 66.8418 172.568 64.1058 175.913 65.8238C178.884 63.5528 181.855 65.7807 184.826 65.8117C185.652 62.8777 187.637 68.1887 188.464 65.8547C189.479 68.6807 188.991 65.5217 189.778 64.9177C190.56 63.3467 190.082 65.0757 191.478 64.2927C191.9 62.9027 192.326 61.5878 192.747 64.3388C194.587 63.8718 196.749 64.7168 198.858 63.6018C200.967 62.2748 203.022 61.9858 204.647 61.6498C205.498 61.1688 205.653 61.5778 206.654 60.3498C207.567 59.3898 209.585 61.3088 210.393 60.2658C211.98 56.6278 213.928 60.5527 215.462 60.1637C217.23 60.2607 218.413 60.4477 220.243 60.3877C222.503 61.5147 224.688 61.6918 227.145 61.1948C228.563 61.6338 229.909 60.5728 231.404 60.1518C232.942 62.0918 234.513 62.0488 236.064 59.2938C237.978 60.0688 239.959 59.1297 241.886 59.2687C243.529 58.4737 246.137 57.9847 247.662 59.3547C248.122 62.4787 248.462 59.6687 248.893 60.1917C249.517 59.5447 250.214 60.2238 250.866 60.5088C251.906 62.0638 253.119 63.0857 254.097 61.8727C254.827 61.8367 255.158 62.4148 255.827 62.9168C256.747 62.7888 257.416 63.2838 258.397 64.1598C258.859 65.5158 259.291 67.5197 259.721 65.0967C260.874 66.4227 262.341 65.0307 263.57 65.3057C265.389 65.7347 267.029 63.8048 268.826 65.7008C271.096 66.6368 273.488 66.3718 275.888 66.0248C278.288 66.2708 280.697 66.5298 283.002 65.8128C285.28 66.9548 287.559 65.2087 289.837 65.8137C292.115 67.9767 294.394 65.6508 296.672 65.8128C298.091 64.0528 299.526 66.0367 300.946 65.8397C303.044 62.3447 303.863 65.0428 305.583 64.3108C306.384 65.3378 308.062 60.8808 308.65 62.4878C309.138 61.2848 309.008 62.2027 309.526 60.4847C309.913 57.7137 310.391 59.8128 310.701 59.2828C310.95 56.1048 310.965 58.9458 311.329 57.7358C312.179 56.8828 313.347 60.3828 314.533 56.6668C316.13 58.4198 317.371 57.4767 319.115 55.7067C320.072 53.9567 321.073 54.7978 322.031 55.7658C324.12 56.1698 326.066 54.2788 328.071 53.4398C329.421 51.0718 329.216 51.9368 330.17 52.3218C330.663 51.1198 331.662 50.5407 332.226 52.0967C335.617 52.5317 338.636 50.9847 341.829 49.7037C343.002 48.4027 344.052 49.3768 345.245 49.3158C345.696 51.9138 346.923 50.6358 347.33 49.7378C348.514 49.9348 349.111 50.2718 350.26 51.8438C353.255 56.1648 356.751 53.2367 358.844 57.2927C359.859 57.9277 360.874 61.5627 362.087 60.7837C363.59 63.6997 365.746 65.3997 367.599 62.2497C369.455 65.1927 371.056 60.8928 372.899 63.7138C374.597 62.2708 376.488 65.4938 378.237 64.3278C380.439 64.9408 381.629 63.7737 383.485 65.4107C386.163 68.4427 389.065 67.8597 392.343 67.8487C395.344 69.3807 397.265 67.3157 399.81 66.0787C400.968 64.3037 401.997 64.7747 403.07 64.1787C405.583 63.2787 408.781 64.5847 411.741 62.2427C414.58 64.0197 417.156 63.7808 419.983 61.7868C422.008 60.7568 424.035 59.8918 426.058 61.7378C429.776 62.9288 432.93 63.3398 436.532 63.6858C438.002 62.8498 440.24 62.5748 441.735 63.7248C444.071 62.3558 445.175 60.8718 447.238 60.3648C450.183 57.2748 453.464 59.2537 456.786 59.0577C460.108 58.6537 463.471 59.5157 466.58 59.2707C469.882 59.2157 473.189 60.2578 476.49 59.2748C479.42 58.7518 480.837 58.9987 482.457 56.2497C482.457 55.3357 481.688 51.4107 480.664 42.9367C479.639 35.4277 478.358 24.2857 477.333 18.2127C476.308 11.8277 475.539 6.70275 475.539 4.89575Z" fill="#FEF5DC" stroke="#47352C" mask="url(#path-1-inside-1_138_13517)"/>
</svg>
